<svg width="48" height="48" viewBox="0 0 48 48" fill="none" xmlns="http://www.w3.org/2000/svg">
  <!-- Background -->
  <rect width="48" height="48" rx="8" fill="#1C1C1E"/>

  <!-- Scan frame corners -->
  <path d="M11 17 L11 11 L17 11" stroke="#007AFF" stroke-width="2.5" stroke-linecap="round" stroke-linejoin="round" fill="none"/>
  <path d="M31 11 L37 11 L37 17" stroke="#007AFF" stroke-width="2.5" stroke-linecap="round" stroke-linejoin="round" fill="none"/>
  <path d="M11 31 L11 37 L17 37" stroke="#007AFF" stroke-width="2.5" stroke-linecap="round" stroke-linejoin="round" fill="none"/>
  <path d="M31 37 L37 37 L37 31" stroke="#007AFF" stroke-width="2.5" stroke-linecap="round" stroke-linejoin="round" fill="none"/>

  <!-- Simplified barcode pattern -->
  <rect x="15" y="15" width="5" height="5" rx="1" fill="#FFFFFF"/>
  <rect x="22" y="15" width="4" height="5" rx="1" fill="#FFFFFF"/>
  <rect x="28" y="15" width="5" height="5" rx="1" fill="#FFFFFF"/>

  <rect x="15" y="22" width="4" height="4" rx="1" fill="#FFFFFF"/>
  <rect x="29" y="22" width="4" height="4" rx="1" fill="#FFFFFF"/>

  <!-- Scan line -->
  <rect x="13" y="23" width="22" height="2" rx="1" fill="#007AFF"/>

  <rect x="15" y="28" width="5" height="5" rx="1" fill="#FFFFFF"/>
  <rect x="22" y="28" width="4" height="5" rx="1" fill="#FFFFFF"/>
  <rect x="28" y="28" width="5" height="5" rx="1" fill="#FFFFFF"/>
</svg>
